<?xml version="1.0" standalone="no"?>
<!DOCTYPE svg PUBLIC "-//W3C//DTD SVG 1.1//EN" "http://www.w3.org/Graphics/SVG/1.1/DTD/svg11.dtd" >
<svg xmlns="http://www.w3.org/2000/svg" xmlns:xlink="http://www.w3.org/1999/xlink" version="1.1">
<metadata>
Created by FontForge 20170910 at Fri Jan  1 01:00:00 1904
 By Jimmy Wärting
Copyright 1988-1991 Adobe Systems Inc.
</metadata>
<defs>
<font id="HelveticaNeue-Roman" horiz-adv-x="1139" >
  <font-face 
    font-family="Helvetica 55 Roman"
    font-weight="400"
    font-stretch="normal"
    units-per-em="2048"
    panose-1="2 11 5 0 0 0 0 0 0 0"
    ascent="1638"
    descent="-410"
    x-height="1059"
    cap-height="1462"
    bbox="-340 -438 2203.1 1949"
    underline-thickness="102"
    underline-position="-256"
    unicode-range="U+0020-F002"
  />
<missing-glyph horiz-adv-x="0" 
 />
    <glyph glyph-name=".notdef" horiz-adv-x="0" 
 />
    <glyph glyph-name="glyph1" horiz-adv-x="0" 
 />
    <glyph glyph-name="equal" unicode=" " horiz-adv-x="569" 
 />
    <glyph glyph-name="uni00A0" unicode="&#xa0;" horiz-adv-x="569" 
 />
    <glyph glyph-name="greater" unicode="!" horiz-adv-x="530" 
d="M362 1462h-194v-450l51 -637h92l51 637v450zM152 0h227v227h-227v-227z" />
    <glyph glyph-name="question" unicode="&#x22;" horiz-adv-x="872" 
d="M223 934h139v528h-139v-528zM510 934h139v528h-139v-528z" />
    <glyph glyph-name="at" unicode="#" 
d="M209 0h141l60 422h254l-60 -422h141l60 422h207v139h-187l43 307h201v140h-182l59 419h-141l-60 -419h-254l60 419h-141l-60 -419h-227v-140h209l-43 -307h-219v-139h198zM727 868l-43 -307h-254l43 307h254z" />
    <glyph glyph-name="A" unicode="$" 
d="M514 854v0q-104 29 -168 78q-67 49 -67 153q0 117 69 179q66 61 166 69v-479zM627 643v0q116 -29 188 -82q37 -27 57 -70q19 -43 19 -100q-2 -131 -74 -190q-72 -64 -190 -72v514zM51 446q47 -432 463 -481v-168h113v168q200 17 323 131q123 115 125 314q0 96 -35 163
q-35 68 -88 113q-51 45 -104 72q-58 24 -98 32l-123 33v504q186 -35 229 -238h174q-76 361 -403 406v137h-113v-135q-178 -12 -297 -125q-121 -115 -123 -305q0 -174 103 -260q104 -88 317 -135v-543q-125 23 -203 102q-78 80 -86 215h-174z" />
    <glyph glyph-name="B" unicode="%" horiz-adv-x="2048" 
d="M385 -45h176l1100 1524h-174zM1200 381q-2 -170 76 -285q74 -116 256 -121q176 5 254 127q73 119 73 285q2 174 -67 291q-74 117 -260 119q-185 -4 -258 -125q-76 -119 -74 -291v0zM1354 385q0 47 8 100q8 54 26 97q19 47 56 75q33 27 88 27q57 0 94 -27q33 -28 51 -75
q10 -21 17 -45q6 -25 8 -50q4 -53 4 -100q2 -100 -31 -197q-18 -43 -55 -71q-37 -31 -94 -31q-56 0 -88 31q-35 28 -54 73q-16 48 -22 99q-8 51 -8 94v0zM188 1036q-2 -170 76 -284q74 -119 256 -121q176 2 254 127q74 118 74 284q2 174 -68 291q-73 117 -260 119
q-184 -4 -258 -125q-76 -119 -74 -291v0zM342 1040q0 47 8 101q8 53 27 96q18 47 55 76q33 26 88 26q57 0 94 -26q33 -29 52 -76q10 -21 16 -45q6 -25 8 -49q4 -54 4 -101q2 -100 -30 -196q-19 -43 -56 -72q-37 -31 -94 -31q-55 0 -88 31q-35 29 -53 74q-17 47 -23 98
q-8 51 -8 94v0z" />
    <glyph glyph-name="C" unicode="&#x26;" horiz-adv-x="1290" 
d="M506 707l336 -404q-109 -170 -312 -174q-108 0 -190 70q-86 65 -88 178q2 129 78 203q71 71 176 127v0zM938 182l156 -182h227l-285 330q45 92 70 166q20 71 29 194h-166q-7 -119 -47 -227v0l-265 321q113 62 193 156t82 223q-2 152 -109 225q-102 74 -246 74
q-157 -2 -241 -90q-88 -86 -88 -211q0 -108 51 -182q47 -76 111 -162q-144 -70 -240 -172q-100 -100 -102 -270q0 -21 4 -49q4 -27 12 -62q18 -65 65 -131q50 -65 140 -110q88 -46 235 -48q123 0 236 54q110 53 178 153v0zM563 899q-49 61 -92 125q-23 35 -35 68
q-14 30 -14 61q2 80 55 119q49 37 113 37q82 0 125 -45q43 -46 43 -111q-2 -90 -64 -152q-61 -63 -131 -102v0z" />
    <glyph glyph-name="Ucircumflex" unicode="&#x2019;" horiz-adv-x="569" 
d="M170 1235h121q0 -74 -23 -133q-26 -64 -96 -66v-102q119 2 174 90q51 88 51 211v227h-227v-227z" />
    <glyph glyph-name="E" unicode="(" horiz-adv-x="530" 
d="M551 -405q-277 456 -270 958q-7 491 270 944h-133q-320 -440 -322 -944q6 -518 322 -958h133z" />
    <glyph glyph-name="F" unicode=")" horiz-adv-x="530" 
d="M113 -405q319 442 321 944q-6 518 -321 958h-133q274 -457 270 -958q4 -490 -270 -944h133z" />
    <glyph glyph-name="G" unicode="*" horiz-adv-x="721" 
d="M412 1231v231h-109v-231v0l-217 82v0l-37 -99l217 -77l-133 -187l92 -63v0l133 196v0l142 -196v0l84 63l-136 187l224 77l-41 99v0l-219 -82v0z" />
    <glyph glyph-name="H" unicode="+" horiz-adv-x="1229" 
d="M684 1036h-139v-448h-447v-140h447v-448h139v448h446v140h-446v448z" />
    <glyph glyph-name="I" unicode="," horiz-adv-x="569" 
d="M170 0h121q4 -51 -23 -111q-26 -61 -96 -88v-102v0q119 37 174 121q51 86 51 200v207h-227v-227z" />
    <glyph glyph-name="J" unicode="-" horiz-adv-x="797" 
d="M102 487h592v164h-592v-164z" />
    <glyph glyph-name="uni00AD" unicode="&#xad;" horiz-adv-x="797" 
d="M102 487h592v164h-592v-164z" />
    <glyph glyph-name="K" unicode="." horiz-adv-x="569" 
d="M170 0h227v227h-227v-227z" />
    <glyph glyph-name="L" unicode="/" horiz-adv-x="682" 
d="M-37 -35h150l606 1532h-150z" />
    <glyph glyph-name="M" unicode="0" 
d="M86 713q-2 -121 12 -250q15 -127 60 -238q47 -108 147 -178q96 -70 264 -72q170 2 271 72q96 70 143 178q47 111 61 238q9 129 9 250q0 125 -9 254q-14 129 -61 237q-47 111 -143 180q-101 66 -271 68q-168 -2 -264 -68q-100 -69 -147 -180q-23 -53 -35 -112l-12 -62
q-7 -31 -13 -63q-14 -129 -12 -254v0zM270 715q0 84 9 184q6 98 32 188q27 93 88 152q62 57 170 59q113 -2 176 -59q60 -59 86 -152q27 -90 33 -188q4 -100 4 -184q0 -82 -4 -181q-6 -100 -33 -192q-26 -92 -86 -150q-63 -63 -176 -63q-108 0 -170 63q-61 58 -88 150
q-26 92 -32 192q-9 99 -9 181v0z" />
    <glyph glyph-name="N" unicode="1" 
d="M729 1452h-133q-33 -160 -148 -217q-116 -57 -270 -55v-140h377v-1040h174v1452z" />
    <glyph glyph-name="O" unicode="2" 
d="M264 938q-4 137 66 248q67 108 217 112q119 0 198 -69q80 -72 82 -193q0 -145 -92 -237q-92 -97 -278 -205q-158 -88 -269 -215q-55 -66 -90 -158q-37 -92 -49 -221h948v154h-745q33 133 151 219q117 86 256 164q142 83 244 196q107 115 109 301q-2 203 -131 311
q-127 107 -324 107q-231 -2 -352 -145q-121 -144 -115 -369h174z" />
    <glyph glyph-name="P" unicode="3" 
d="M446 682q25 4 54 6h51q133 0 221 -70q86 -69 88 -208q-2 -134 -92 -205q-90 -76 -223 -76q-148 0 -226 90q-77 86 -83 229h-175q0 -225 131 -346q130 -125 353 -127q211 2 354 113t145 330q0 133 -63 227q-68 94 -199 125v4q86 41 144 117q55 76 57 172q-2 203 -125 297
q-123 92 -317 92q-217 -2 -328 -129q-113 -129 -121 -340h174q2 133 68 223q67 90 207 92q112 0 186 -59q70 -59 72 -174q-2 -117 -82 -176q-80 -62 -195 -62q-37 0 -76 2v-147z" />
    <glyph glyph-name="Q" unicode="4" 
d="M858 1452h-139l-662 -944v-168h637v-340h164v340h197v154h-197v958zM207 494l483 710h4v-710h-487z" />
    <glyph glyph-name="R" unicode="5" 
d="M962 1427h-716l-135 -753l149 -8q102 133 270 137q150 -2 238 -90q88 -93 90 -240q-2 -172 -90 -258q-86 -86 -217 -86t-213 76q-82 74 -92 186h-174q10 -196 141 -305q129 -109 321 -111q254 5 383 150q125 143 125 334q-2 250 -135 374q-135 123 -334 123
q-75 0 -147 -24q-72 -25 -123 -80l-4 4l78 418h585v153z" />
    <glyph glyph-name="S" unicode="6" 
d="M586 780q149 -2 223 -96q70 -94 70 -233q0 -134 -74 -224q-78 -96 -219 -98q-144 2 -221 96q-80 90 -80 228q0 141 77 233q78 92 224 94v0zM1022 1081q-41 367 -410 371q-305 -6 -422 -238q-114 -229 -112 -540q0 -115 20 -236q19 -121 70 -227q51 -105 151 -168
q101 -66 258 -68q140 2 234 50q92 45 147 116q58 76 82 160q23 84 23 162q-2 207 -117 338q-117 131 -328 133q-237 2 -362 -191l-4 4q4 89 18 183q15 94 52 178q36 84 106 137q68 51 176 53q213 -6 244 -217h174z" />
    <glyph glyph-name="T" unicode="7" 
d="M1042 1427h-940v-163h762q-491 -506 -573 -1264h194q27 352 181 702q153 349 376 576v149z" />
    <glyph glyph-name="U" unicode="8" 
d="M266 410q2 127 90 202q86 76 217 76q127 -2 213 -78q84 -76 86 -198q-2 -121 -82 -201q-81 -82 -215 -82q-137 0 -221 76q-88 76 -88 205v0zM133 1081q0 -98 57 -180q56 -82 146 -121q-252 -94 -254 -362q2 -221 143 -332q137 -111 350 -111q209 2 342 117
q138 115 140 326q0 274 -258 362q194 94 200 301q0 146 -100 256q-102 113 -340 115q-172 0 -295 -94q-129 -94 -131 -277v0zM317 1075q0 111 76 168q72 55 178 55q111 0 176 -55q66 -57 68 -168q-2 -110 -68 -170q-65 -63 -172 -63q-108 0 -182 57q-76 57 -76 176v0z" />
    <glyph glyph-name="V" unicode="9" 
d="M838 967q-2 -134 -80 -224q-78 -94 -217 -96q-129 2 -205 94q-82 90 -82 213q0 140 65 240q68 102 220 104q147 -2 225 -96q74 -96 74 -235v0zM100 350q21 -186 140 -278q116 -97 301 -97q510 9 503 783q0 204 -36 342q-41 135 -109 213q-143 143 -352 139
q-213 -2 -342 -129q-133 -129 -135 -344q0 -219 118 -348q119 -135 340 -137q226 4 336 200l4 -4q-12 -561 -327 -561q-107 0 -181 59q-73 58 -86 162h-174z" />
    <glyph glyph-name="W" unicode=":" horiz-adv-x="569" 
d="M170 0h227v227h-227v-227zM397 1059h-227v-228h227v228z" />
    <glyph glyph-name="X" unicode=";" horiz-adv-x="569" 
d="M170 0h121q4 -51 -23 -111q-26 -61 -96 -88v-102v0q119 37 174 121q55 86 51 200v207h-227v-227zM397 1059h-227v-228h227v228z" />
    <glyph glyph-name="Y" unicode="&#x3c;" horiz-adv-x="1229" 
d="M1135 1053v0l-1041 -471v-127l1041 -471v0v139l-871 395l871 395v140z" />
    <glyph glyph-name="Z" unicode="=" horiz-adv-x="1229" 
d="M1130 795h-1032v-140h1032v140zM98 242h1032v139h-1032v-139z" />
    <glyph glyph-name="bracketleft" unicode="&#x3e;" horiz-adv-x="1229" 
d="M94 -16v0l1041 471v127l-1041 471v0v-140l871 -395l-871 -395v-139z" />
    <glyph glyph-name="backslash" unicode="?" 
d="M287 1005q0 146 69 242q72 94 215 96q226 -4 248 -239q6 -55 -8 -99q-12 -45 -37 -81q-22 -35 -51 -66q-31 -33 -64 -63q-30 -31 -61 -64t-59 -74q-27 -41 -43 -90q-21 -51 -21 -114v-97h174v80q0 103 58 174q53 70 120 129q72 64 123 144q51 82 53 204q-2 199 -120 303
q-117 107 -312 107q-217 -2 -338 -139q-120 -135 -120 -353h174zM446 0h228v227h-228v-227z" />
    <glyph glyph-name="bracketright" unicode="@" horiz-adv-x="1638" 
d="M860 1034q68 -2 117 -57q47 -55 49 -133q-2 -137 -90 -281q-43 -65 -100 -108q-60 -47 -127 -47q-78 0 -125 57q-52 53 -52 141q2 146 93 283q43 65 104 106q59 39 131 39v0zM1266 1135h-129l-48 -130v0q-34 93 -94 132q-63 36 -135 36q-219 -6 -348 -182
q-131 -174 -133 -399q0 -137 82 -227q80 -95 211 -97q78 0 143 43q66 39 111 94h6q4 -67 43 -98q35 -35 88 -35q158 2 313 164q160 160 166 430q-4 281 -205 455q-198 174 -491 176q-320 -4 -535 -221q-221 -213 -225 -539q4 -329 223 -547q215 -221 545 -225q420 6 641 361
h-129q-195 -242 -508 -248q-264 2 -444 188q-185 182 -189 461q2 276 183 465q172 188 440 192q223 -2 387 -141q164 -141 168 -387q-4 -172 -92 -315q-41 -70 -90 -111q-50 -45 -101 -45q-51 2 -49 63q2 50 23 105z" />
    <glyph glyph-name="asciicircum" unicode="A" horiz-adv-x="1327" 
d="M-14 0h200l164 440h619l159 -440h215l-571 1462h-215zM659 1286h5l243 -682h-495z" />
    <glyph glyph-name="underscore" unicode="B" horiz-adv-x="1403" 
d="M354 670h445q127 2 221 -50q94 -53 96 -194q-6 -256 -274 -262h-488v506zM160 0h706q219 2 334 131q111 123 111 289q-2 284 -279 352v4q213 88 217 328q-2 108 -49 186q-47 76 -123 119q-67 39 -176 47q-108 6 -211 6h-530v-1462zM354 1298h389q66 0 121 -6
q55 -8 98 -33q46 -24 70 -69q23 -45 23 -123q4 -234 -312 -234h-389v465z" />
    <glyph glyph-name="grave" unicode="C" horiz-adv-x="1479" 
d="M1382 1022q-39 233 -202 354q-164 121 -400 121q-338 -4 -514 -225q-178 -217 -178 -545t168 -541q168 -217 508 -221q565 10 633 586h-195q-12 -184 -121 -301q-106 -119 -301 -121q-129 0 -223 51q-94 47 -156 131q-120 174 -118 430q-2 238 118 412q119 176 377 180
q156 0 266 -76q111 -79 144 -235h194z" />
    <glyph glyph-name="a" unicode="D" horiz-adv-x="1442" 
d="M160 0h501q709 8 703 766q-6 698 -703 696h-501v-1462zM354 1298h328q500 -10 487 -559q-2 -198 -55 -313q-57 -117 -139 -174q-82 -55 -162 -72q-82 -16 -135 -16h-324v1134z" />
    <glyph glyph-name="b" unicode="E" horiz-adv-x="1251" 
d="M160 0h1015v164h-821v506h760v163h-760v465h815v164h-1009v-1462z" />
    <glyph glyph-name="c" unicode="F" horiz-adv-x="1175" 
d="M160 0h194v670h672v163h-672v465h766v164h-960v-1462z" />
    <glyph glyph-name="d" unicode="G" horiz-adv-x="1554" 
d="M1253 182l51 -182h123v770h-641v-164h467q8 -205 -114 -338q-125 -137 -355 -139q-243 4 -370 178q-131 170 -131 406q-2 245 118 430q121 186 383 190q166 0 287 -76q117 -79 147 -245h195q-45 256 -215 372q-170 113 -414 113q-348 -6 -520 -238q-176 -227 -176 -557
q0 -297 186 -510q183 -221 510 -227q133 0 258 53q125 52 211 164v0z" />
    <glyph glyph-name="e" unicode="H" horiz-adv-x="1479" 
d="M160 0h194v670h770v-670h195v1462h-195v-629h-770v629h-194v-1462z" />
    <glyph glyph-name="f" unicode="I" horiz-adv-x="530" 
d="M168 0h194v1462h-194v-1462z" />
    <glyph glyph-name="g" unicode="J" horiz-adv-x="1063" 
d="M903 1462h-194v-1069q0 -121 -48 -190q-53 -74 -186 -74q-139 0 -188 84q-49 80 -47 207v61h-195v-90q4 -422 426 -426q242 4 340 127q51 57 72 129q20 70 20 144v1097z" />
    <glyph glyph-name="h" unicode="K" horiz-adv-x="1366" 
d="M160 0h194v512l244 227v0l528 -739h246l-641 872l616 590h-251l-742 -729v0v729h-194v-1462z" />
    <glyph glyph-name="i" unicode="L" 
d="M160 0h968v164h-774v1298h-194v-1462z" />
    <glyph glyph-name="j" unicode="M" horiz-adv-x="1784" 
d="M164 0h184v1216h4l457 -1216h166l456 1216h5v-1216h184v1462h-266l-463 -1229v0l-461 1229h-266v-1462z" />
    <glyph glyph-name="k" unicode="N" horiz-adv-x="1479" 
d="M158 0h184v1173h4l764 -1173h213v1462h-184v-1186h-4l-770 1186h-207v-1462z" />
    <glyph glyph-name="l" unicode="O" horiz-adv-x="1556" 
d="M78 731q0 -307 178 -530q176 -230 522 -236q350 6 526 236q175 223 175 530q0 309 -175 533q-176 227 -526 233q-346 -6 -522 -233q-178 -224 -178 -533v0zM272 731q0 231 121 414q62 88 158 137q96 51 227 51q135 0 232 -51q94 -49 155 -137q119 -183 119 -414
q0 -55 -6 -108q-6 -56 -21 -109q-30 -104 -92 -192q-121 -189 -387 -193q-264 4 -385 193q-59 88 -90 192q-31 106 -31 217v0z" />
    <glyph glyph-name="m" unicode="P" horiz-adv-x="1327" 
d="M160 0h194v598h447q444 12 448 432q-4 426 -448 432h-641v-1462zM354 1298h381q322 -2 320 -268q2 -266 -320 -268h-381v536z" />
    <glyph glyph-name="n" unicode="Q" horiz-adv-x="1556" 
d="M1352 -127l98 123l-193 153q222 232 222 582q0 309 -175 533q-176 227 -526 233q-346 -6 -522 -233q-178 -224 -178 -533q0 -307 178 -530q176 -230 522 -236q207 2 350 88v0l224 -180v0zM922 418l-103 -119l162 -129q-90 -41 -203 -41q-264 4 -385 193q-59 88 -90 192
q-31 106 -31 217q0 231 121 414q62 88 158 137q96 51 227 51q135 0 232 -51q94 -49 155 -137q119 -183 119 -414q0 -133 -39 -256q-43 -125 -129 -213v0l-194 156v0z" />
    <glyph glyph-name="o" unicode="R" horiz-adv-x="1403" 
d="M354 788v510h484q137 -2 200 -69q60 -70 60 -180q0 -78 -25 -127q-29 -52 -76 -82q-96 -54 -237 -52h-406zM160 0h194v625h475q72 0 117 -19q45 -20 70 -57q26 -37 39 -84q12 -49 18 -105q12 -53 14 -106t5 -102q2 -50 10 -86q6 -41 24 -66h217q-30 39 -45 88
q-16 47 -22 98q-12 107 -19 217q-6 111 -49 193q-24 41 -63 70q-43 26 -107 38v5q131 38 195 139q59 98 59 231q-8 375 -444 383h-688v-1462z" />
    <glyph glyph-name="p" unicode="S" horiz-adv-x="1327" 
d="M1190 1034q-15 242 -160 354q-149 109 -379 109q-207 0 -362 -102q-164 -103 -168 -326q4 -195 147 -272q35 -21 74 -37q37 -15 78 -31q43 -12 86 -22q41 -13 84 -25q90 -16 174 -35q82 -20 147 -51q70 -31 107 -76q39 -49 39 -125t-31 -129q-33 -51 -86 -82
q-53 -28 -119 -41q-67 -14 -135 -14q-172 0 -295 84q-129 86 -131 268h-184q4 -266 180 -391q172 -125 424 -125q211 0 387 103q178 102 184 333q0 107 -39 181q-37 73 -106 118q-66 50 -148 78q-41 15 -84 27q-43 10 -90 18q-86 21 -170 39q-84 19 -151 45q-66 27 -105 70
q-43 39 -43 106q2 144 103 199q98 51 225 51q315 4 362 -299h185z" />
    <glyph glyph-name="q" unicode="T" horiz-adv-x="1175" 
d="M491 0h195v1298h487v164h-1169v-164h487v-1298z" />
    <glyph glyph-name="r" unicode="U" horiz-adv-x="1479" 
d="M1327 1462h-195v-934q-4 -397 -380 -399q-402 2 -406 399v934h-194v-934q8 -567 600 -563q567 4 575 563v934z" />
    <glyph glyph-name="s" unicode="V" horiz-adv-x="1251" 
d="M1255 1462h-202l-422 -1267h-4l-418 1267h-211l516 -1462h221z" />
    <glyph glyph-name="t" unicode="W" horiz-adv-x="1896" 
d="M1872 1462h-195l-297 -1216h-4l-323 1216h-211l-328 -1216h-4l-287 1216h-198l374 -1462h203l338 1229h4l334 -1229h203z" />
    <glyph glyph-name="u" unicode="X" horiz-adv-x="1251" 
d="M-2 0h219l406 604v0l393 -604h237l-514 752l484 710h-218l-380 -571v0l-365 571h-233l481 -710z" />
    <glyph glyph-name="v" unicode="Y" horiz-adv-x="1327" 
d="M1323 1462h-221l-428 -696v0l-438 696h-232l565 -864v-598h195v598z" />
    <glyph glyph-name="w" unicode="Z" horiz-adv-x="1251" 
d="M45 0h1163v164h-932l908 1134v164h-1069v-164h839l-909 -1134v-164z" />
    <glyph glyph-name="x" unicode="[" horiz-adv-x="530" 
d="M530 1497h-383v-1902h383v139h-219v1624h219v139z" />
    <glyph glyph-name="y" unicode="\" horiz-adv-x="682" 
d="M113 1497h-150l606 -1532h150z" />
    <glyph glyph-name="z" unicode="]" horiz-adv-x="530" 
d="M0 -405h383v1902h-383v-139h219v-1624h-219v-139z" />
    <glyph glyph-name="braceleft" unicode="^" horiz-adv-x="1229" 
d="M102 541h146l364 737v0l371 -737h143l-446 886h-131z" />
    <glyph glyph-name="bar" unicode="_" horiz-adv-x="1024" 
d="M0 -256h1024v102h-1024v-102z" />
    <glyph glyph-name="Uacute" unicode="&#x2018;" horiz-adv-x="569" 
d="M399 1161h-120q0 76 26 137q27 60 92 62v102q-114 -2 -170 -88q-55 -86 -55 -213v-227h227v227z" />
    <glyph glyph-name="asciitilde" unicode="a" horiz-adv-x="1100" 
d="M786 547v-178q0 -76 -73 -154q-39 -37 -101 -59q-63 -27 -149 -27q-82 0 -141 35q-64 37 -64 121q0 96 64 137q61 41 149 53q90 14 178 27q86 10 137 45v0zM1069 139q-33 -10 -53 -10q-39 0 -47 31q-11 26 -9 88v545q0 94 -32 151q-35 57 -92 88q-56 31 -127 43
q-72 8 -146 8q-180 0 -307 -78q-127 -81 -141 -276h174q8 115 82 160q69 41 182 41q88 2 160 -31q34 -18 57 -51q18 -37 18 -94q-2 -93 -104 -113q-49 -12 -113 -21q-65 -8 -139 -22q-67 -10 -129 -29q-63 -20 -117 -55q-51 -33 -80 -92q-32 -57 -32 -150q2 -155 104 -225
q98 -72 246 -72q225 0 373 164v0q2 -166 147 -164q82 0 125 29v135z" />
    <glyph glyph-name="Adieresis" unicode="b" horiz-adv-x="1214" 
d="M956 539q2 -160 -67 -281q-74 -127 -250 -129q-176 2 -256 123q-78 117 -78 278q-2 158 76 277q76 119 248 123q168 -4 250 -119q77 -117 77 -272v0zM137 0h174v141h4q31 -45 74 -75q41 -33 88 -54q96 -37 180 -37q242 5 365 164q119 158 119 387q0 232 -119 391
q-123 162 -369 166q-108 0 -200 -39q-93 -39 -138 -129h-4v547h-174v-1462z" />
    <glyph glyph-name="Aring" unicode="c" horiz-adv-x="1100" 
d="M1030 719q-22 190 -145 278q-127 86 -312 86q-251 -2 -374 -164q-125 -157 -125 -403q0 -242 127 -387q127 -152 368 -154q404 7 467 412h-178q-37 -254 -291 -258q-164 2 -235 123q-76 115 -74 264q-2 170 72 289q73 121 258 125q219 -4 262 -211h180z" />
    <glyph glyph-name="Ccedilla" unicode="d" horiz-adv-x="1214" 
d="M1077 1462h-174v-545h-4q-61 95 -158 132q-47 18 -94 28q-47 6 -90 6q-242 -4 -362 -161q-121 -158 -121 -390q0 -231 123 -389q122 -163 364 -168q113 0 203 43q90 39 135 125h4v-143h174v1462zM258 520q-2 162 72 285q71 121 245 125q181 -2 258 -121q76 -119 76 -281
q0 -153 -73 -272q-76 -125 -250 -127q-168 2 -248 123q-80 115 -80 268v0z" />
    <glyph glyph-name="Eacute" unicode="e" horiz-adv-x="1100" 
d="M862 336q-53 -207 -274 -207q-172 2 -252 107q-82 100 -78 241h793q12 207 -95 402q-106 198 -385 204q-219 -2 -356 -155q-139 -152 -141 -396q8 -247 133 -399q123 -153 375 -158q368 5 452 361h-172zM258 631q10 127 90 213q78 84 213 86q133 -2 215 -86t90 -213h-608
z" />
    <glyph glyph-name="Ntilde" unicode="f" horiz-adv-x="606" 
d="M203 0h174v905h205v154h-205v147q0 70 37 96q34 23 96 23q49 0 98 -14v151q-55 17 -112 17q-291 -2 -293 -263v-157h-178v-154h178v-905z" />
    <glyph glyph-name="Odieresis" unicode="g" horiz-adv-x="1175" 
d="M557 141q-168 4 -233 131q-68 125 -66 273q-2 157 74 270t239 115q164 -4 234 -119q67 -113 67 -260q0 -154 -69 -279q-76 -127 -246 -131v0zM1044 1059h-163v-152h-2q-105 176 -316 176q-270 -6 -381 -184q-57 -82 -82 -178q-26 -101 -26 -197q0 -221 121 -375
q116 -157 352 -161q104 0 194 49t135 143h5v-69q0 -181 -72 -289q-76 -111 -246 -113q-90 0 -176 39q-41 23 -65 55q-29 31 -33 78h-174q16 -170 149 -241q133 -70 289 -70q493 2 491 520v969z" />
    <glyph glyph-name="Udieresis" unicode="h" 
d="M131 0h174v598q0 147 80 240q78 90 233 92q211 -6 215 -213v-717h175v696q2 174 -76 281q-82 104 -289 106q-98 0 -190 -41q-97 -45 -144 -139h-4v559h-174v-1462z" />
    <glyph glyph-name="aacute" unicode="i" horiz-adv-x="455" 
d="M141 0h174v1059h-174v-1059zM315 1462h-174v-213h174v213z" />
    <glyph glyph-name="agrave" unicode="j" horiz-adv-x="455" 
d="M315 1059h-174v-1165q0 -80 -18 -113q-23 -33 -80 -33q-35 0 -72 4v-149q47 -8 90 -8q248 -3 254 270v1194zM315 1462h-174v-213h174v213z" />
    <glyph glyph-name="acircumflex" unicode="k" horiz-adv-x="1063" 
d="M141 0h174v401l164 152v0l363 -553h221l-451 674l420 385h-233l-484 -463v0v866h-174v-1462z" />
    <glyph glyph-name="adieresis" unicode="l" horiz-adv-x="455" 
d="M141 0h174v1462h-174v-1462z" />
    <glyph glyph-name="atilde" unicode="m" horiz-adv-x="1747" 
d="M131 0h174v659q0 72 66 166q32 45 88 76q53 29 129 29q114 -2 159 -66q39 -63 39 -170v-694h174v659q7 265 277 271q125 -2 168 -68q39 -67 37 -168v-694h174v776q-2 166 -96 238q-95 69 -256 69q-213 -4 -332 -180v0q-33 98 -113 139q-78 41 -178 41q-221 0 -342 -180
h-4v156h-164v-1059z" />
    <glyph glyph-name="aring" unicode="n" 
d="M131 0h174v598q0 147 80 240q78 90 233 92q211 -6 215 -213v-717h175v696q2 174 -76 281q-82 104 -289 106q-229 0 -344 -192h-4v168h-164v-1059z" />
    <glyph glyph-name="ccedilla" unicode="o" horiz-adv-x="1175" 
d="M74 528q0 -235 133 -391q129 -157 381 -162q252 5 385 162q129 156 129 391q0 240 -129 396q-133 157 -385 159q-252 -2 -381 -159q-133 -156 -133 -396v0zM258 528q2 195 98 299q92 103 232 103q141 0 233 -103q94 -104 96 -299q-2 -192 -96 -295q-92 -104 -233 -104
q-140 0 -232 104q-96 103 -98 295v0z" />
    <glyph glyph-name="eacute" unicode="p" horiz-adv-x="1214" 
d="M956 539q2 -160 -67 -281q-74 -127 -250 -129q-176 2 -256 123q-78 117 -78 278q-2 158 76 277q76 119 248 123q168 -4 250 -119q77 -117 77 -272v0zM137 -405h174v546h4q31 -45 74 -75q41 -33 88 -54q96 -37 180 -37q242 5 365 164q119 158 119 387q0 232 -119 391
q-123 162 -369 166q-108 0 -200 -39q-93 -39 -138 -129h-4v144h-174v-1464z" />
    <glyph glyph-name="egrave" unicode="q" horiz-adv-x="1214" 
d="M1077 1059h-174v-142h-4q-61 95 -158 132q-47 18 -94 28q-47 6 -90 6q-242 -4 -362 -161q-121 -158 -121 -390q0 -231 123 -389q122 -163 364 -168q113 0 203 43q90 39 135 125h4v-548h174v1464zM258 520q-2 162 72 285q71 121 245 125q181 -2 258 -121q76 -119 76 -281
q0 -153 -73 -272q-76 -125 -250 -127q-168 2 -248 123q-80 115 -80 268v0z" />
    <glyph glyph-name="ecircumflex" unicode="r" horiz-adv-x="682" 
d="M125 0h174v471q-10 422 383 428v184q-272 9 -389 -247h-4v223h-164v-1059z" />
    <glyph glyph-name="edieresis" unicode="s" horiz-adv-x="1024" 
d="M63 334q15 -193 142 -277q125 -82 307 -82q170 0 307 74q139 76 143 260q0 78 -28 129q-29 51 -78 84q-49 35 -111 55q-61 21 -129 33q-59 17 -118 31q-62 12 -113 31q-49 18 -82 49q-33 29 -33 74q2 79 76 108q70 27 150 27q90 0 161 -37q72 -41 84 -141h174
q-12 190 -133 264q-121 69 -301 67q-145 0 -266 -69q-57 -37 -92 -92q-37 -60 -37 -140q0 -73 33 -125q28 -51 78 -84q49 -32 110 -53q31 -8 64 -18q30 -8 61 -19q137 -22 240 -59q49 -21 78 -53q28 -33 28 -84q0 -47 -22 -78q-25 -31 -64 -49q-37 -17 -82 -23
q-43 -8 -88 -8q-110 -2 -192 45q-82 45 -92 160h-175z" />
    <glyph glyph-name="iacute" unicode="t" horiz-adv-x="645" 
d="M373 1376h-174v-317h-181v-154h181v-674q0 -141 59 -186q59 -47 193 -45h133v154h-80q-78 -2 -105 18q-28 20 -26 76v657h211v154h-211v317z" />
    <glyph glyph-name="igrave" unicode="u" 
d="M1008 1059h-175v-598q0 -144 -75 -236q-78 -94 -238 -96q-211 4 -215 213v717h-174v-697q-2 -172 80 -276q80 -109 285 -111q231 0 344 193h4v-168h164v1059z" />
    <glyph glyph-name="icircumflex" unicode="v" horiz-adv-x="1024" 
d="M995 1059h-182l-289 -883h-4l-297 883h-194l393 -1059h186z" />
    <glyph glyph-name="idieresis" unicode="w" horiz-adv-x="1552" 
d="M1517 1059h-180l-237 -867h-4l-222 867h-190l-213 -867h-4l-240 867h-192l340 -1059h188l213 842h4l215 -842h185z" />
    <glyph glyph-name="ntilde" unicode="x" horiz-adv-x="1061" 
d="M18 0h211l295 438v0l295 -438h223l-409 571l364 488h-209l-264 -371v0l-254 371h-223l369 -502z" />
    <glyph glyph-name="oacute" unicode="y" horiz-adv-x="1024" 
d="M1008 1059h-185l-297 -867h-4l-309 867h-197l420 -1053l-71 -180q-23 -45 -56 -70q-33 -24 -88 -26q-53 2 -102 24v-159q59 -19 121 -19q114 0 184 66q67 65 123 217z" />
    <glyph glyph-name="ograve" unicode="z" horiz-adv-x="983" 
d="M45 0h893v154h-676l647 786v119h-823v-154h598l-639 -772v-133z" />
    <glyph glyph-name="ocircumflex" unicode="{" horiz-adv-x="682" 
d="M633 1497h-144q-81 0 -147 -68q-72 -67 -74 -200v-373q-2 -109 -51 -174q-51 -68 -119 -68v-139q68 0 119 -63q49 -62 51 -176v-373q2 -129 74 -199q66 -67 147 -69h144v122h-103q-57 2 -77 60q-21 53 -21 117v374q0 80 -20 133q-21 52 -50 82q-28 31 -57 45
q-31 15 -51 15v6q43 8 108 69q29 33 50 84q20 50 20 121v375q0 68 21 121q20 53 77 55h103v123z" />
    <glyph glyph-name="odieresis" unicode="|" horiz-adv-x="455" 
d="M158 -438h139v2048h-139v-2048z" />
    <glyph glyph-name="otilde" unicode="}" horiz-adv-x="682" 
d="M49 -405h143q82 2 150 69q70 70 72 199v373q2 110 55 176q49 63 115 63v139q-66 0 -115 68q-53 63 -55 174v373q-2 133 -72 200q-68 68 -150 68h-143v-123h103q59 -2 79 -55q19 -55 19 -125v-371q0 -76 22 -129q21 -51 50 -82q30 -30 61 -45q29 -14 45 -18v-6
q-41 -6 -106 -70q-29 -31 -50 -80q-22 -51 -22 -125v-374q0 -68 -19 -119q-20 -56 -79 -58h-103v-122z" />
    <glyph glyph-name="uacute" unicode="~" horiz-adv-x="1229" 
d="M1014 653v0q-33 -55 -76 -102q-43 -51 -105 -53q-40 0 -94 28q-55 27 -114 54q-60 28 -115 47q-59 18 -113 18q-100 -2 -161 -55q-62 -53 -95 -121l74 -102v0q25 57 66 106q38 47 106 49q72 -2 129 -24q57 -27 107 -56q51 -28 102 -47q51 -20 106 -20q95 0 154 57
q31 27 57 57q25 31 45 62z" />
    <glyph glyph-name="fl" unicode="&#xa1;" horiz-adv-x="530" 
d="M168 -405h194v450l-51 637h-92l-51 -637v-450zM379 1059h-227v-228h227v228z" />
    <glyph glyph-name="questiondown" unicode="&#xa2;" 
d="M557 129q-145 18 -213 131q-65 113 -65 256q-3 158 61 274q63 117 217 140v-801zM557 -238h80v213q194 5 301 131q104 123 121 281h-174q-15 -104 -76 -174q-62 -70 -172 -84v801q196 -15 237 -211h179q-23 186 -134 274q-112 88 -282 90v195h-80v-195
q-229 -20 -346 -180t-117 -387q0 -231 121 -379q117 -147 342 -162v-213z" />
    <glyph glyph-name="exclamdown" unicode="&#xa3;" 
d="M96 670h174q21 -41 37 -90q15 -54 15 -101q-3 -117 -68 -211q-66 -96 -158 -155l96 -136v0q91 70 205 72q58 0 113 -12q53 -14 102 -31q103 -39 203 -41q82 0 160 23q78 20 139 71l-88 136v0q-37 -29 -84 -52q-47 -24 -98 -24q-92 2 -172 37q-39 12 -86 22q-25 4 -49 6
q-29 2 -60 2q-59 0 -110 -16q-52 -18 -105 -43l-4 4q96 74 166 164q70 86 72 221q-2 88 -41 154h280v92h-325q-17 39 -35 76q-19 32 -35 69q-35 70 -37 168q2 117 86 193q82 73 207 75q293 -6 299 -374h174q-10 526 -483 528q-193 -2 -326 -109q-139 -108 -141 -307
q0 -94 28 -170q27 -80 68 -149h-119v-92z" />
    <glyph glyph-name="macron" unicode="&#x2215;" horiz-adv-x="342" 
d="M-340 -57h131l891 1542h-131z" />
    <glyph glyph-name="quotedblleft" unicode="&#xa5;" 
d="M475 0h195v356h295v123h-295v86l37 68h258v123h-191l365 706h-213l-346 -723v0l-357 723h-223l375 -706h-189v-123h252l37 -68v-86h-289v-123h289v-356z" />
    <glyph glyph-name="quotesinglbase" unicode="&#x192;" 
d="M1008 1462h-152q-129 -2 -211 -72q-80 -73 -104 -192l-54 -279h-186l-27 -139h189l-144 -755q-18 -136 -71 -174q-56 -37 -213 -35l-29 -154h135q170 -2 258 103q86 104 131 378l113 637h205l28 139h-208l63 283q21 107 127 107h121z" />
    <glyph glyph-name="logicalnot" unicode="&#xa7;" 
d="M389 860q139 -90 283 -174q35 -18 73 -41q39 -25 70 -55q35 -27 55 -64q19 -37 19 -82q-2 -67 -43 -116t-105 -74v0q-139 94 -286 170q-37 24 -74 49t-70 51q-69 58 -71 150q0 65 47 116q43 52 102 70v0zM952 1118q-24 379 -377 379q-147 0 -260 -84q-116 -86 -118 -248
q0 -129 94 -217q-92 -26 -154 -104q-65 -80 -65 -178q2 -164 112 -263q107 -98 244 -165q141 -70 248 -142q51 -37 80 -80q28 -43 28 -98q-2 -84 -65 -127q-62 -43 -142 -43q-106 2 -165 66q-64 63 -68 168h-174q37 -379 412 -387q170 2 276 90q104 88 107 237
q0 154 -121 246q94 39 153 121q58 80 60 180q-2 149 -105 242q-100 90 -235 155q-64 37 -123 70q-62 35 -111 67q-47 37 -75 76q-31 39 -31 88q0 90 57 133q55 43 137 43q99 -2 154 -63q53 -64 53 -162h174z" />
    <glyph glyph-name="breve" unicode="&#xa4;" 
d="M152 1237l-101 -100l117 -119q-113 -123 -111 -303q0 -172 107 -299l-113 -119l98 -98v0l113 118v0q129 -110 311 -110q179 0 303 112v0l115 -118v0l96 96l-112 115q106 133 106 307q0 180 -106 303l112 113l-102 104v0l-117 -115v0q-121 101 -293 103q-182 -2 -309 -105
v0l-114 115v0zM575 1073q146 -2 238 -102q92 -103 94 -252q-2 -150 -94 -252q-92 -105 -240 -107q-145 2 -241 105q-99 98 -101 250q2 153 101 256q96 100 243 102v0z" />
    <glyph glyph-name="D" unicode="'" horiz-adv-x="569" 
d="M215 934h139v528h-139v-528z" />
    <glyph glyph-name="apple" unicode="&#x201c;" horiz-adv-x="872" 
d="M737 1161h-121q0 76 27 137q27 60 92 62v102q-115 -2 -170 -88t-55 -213v-227h227v227zM362 1161h-120q0 76 26 137q27 60 92 62v102q-114 -2 -170 -88q-55 -86 -55 -213v-227h227v227z" />
    <glyph glyph-name="Acircumflex" unicode="&#xab;" horiz-adv-x="948" 
d="M815 233v0v177l-205 159l205 160v176v0l-311 -246v-180zM414 233v0v177l-205 159l205 160v176v0l-312 -246v-180z" />
    <glyph glyph-name="dotaccent" unicode="&#x2039;" horiz-adv-x="530" 
d="M414 233v0v177l-205 159l205 160v176v0l-312 -246v-180z" />
    <glyph glyph-name="ring" unicode="&#x203a;" horiz-adv-x="530" 
d="M117 905v0v-176l205 -160l-205 -159v-177v0l311 246v180z" />
    <glyph glyph-name="cedilla" unicode="&#xf001;" horiz-adv-x="1061" 
d="M203 0h174v905h205v154h-205v147q0 70 37 96q34 23 96 23q49 0 98 -14v151q-55 17 -112 17q-291 -2 -293 -263v-157h-178v-154h178v-905zM922 1249v213h-175v-213h175zM922 0v1059h-175v-1059h175z" />
    <glyph glyph-name="hungarumlaut" unicode="&#xf002;" horiz-adv-x="1061" 
d="M203 0h174v905h205v154h-205v147q0 70 37 96q34 23 96 23q49 0 98 -14v151q-55 17 -112 17q-291 -2 -293 -263v-157h-178v-154h178v-905zM747 0h175v1462h-175v-1462z" />
    <glyph glyph-name="Oacute" unicode="&#x2013;" horiz-adv-x="1024" 
d="M0 487h1024v164h-1024v-164z" />
    <glyph glyph-name="ae" unicode="&#x2020;" 
d="M483 -317h164v1222h406v154h-406v403h-164v-403h-397v-154h397v-1222z" />
    <glyph glyph-name="ogonek" unicode="&#x2021;" 
d="M483 -317h164v403h406v154h-406v665h406v154h-406v403h-164v-403h-397v-154h397v-665h-397v-154h397v-403z" />
    <glyph glyph-name="caron" unicode="&#x2219;" horiz-adv-x="569" 
d="M154 637q0 -53 41 -90q38 -41 92 -41q53 0 92 41q35 39 37 90q0 53 -39 92t-92 39q-54 -2 -90 -37q-41 -37 -41 -94v0z" />
    <glyph glyph-name="florin" unicode="&#xb6;" horiz-adv-x="1229" 
d="M1055 1462h-490q-459 -6 -467 -422q2 -164 121 -268q117 -111 307 -113v-976h140v1667h249v-1667h140v1779z" />
    <glyph glyph-name="radical" unicode="&#x2022;" horiz-adv-x="1024" 
d="M147 731q2 -156 109 -258q102 -106 256 -108q158 2 260 108q104 102 107 258q-3 158 -107 260q-102 103 -260 105q-154 -2 -256 -105q-107 -102 -109 -260v0z" />
    <glyph glyph-name="Lslash" unicode="&#x201a;" horiz-adv-x="569" 
d="M170 0h121q0 -74 -23 -133q-26 -64 -96 -66v-102q119 2 174 90q51 88 51 211v227h-227v-227z" />
    <glyph glyph-name="lslash" unicode="&#x201e;" horiz-adv-x="872" 
d="M135 0h121q0 -74 -23 -133q-26 -64 -96 -66v-102q119 2 174 90q51 88 51 211v227h-227v-227zM510 0h121q0 -74 -23 -133q-26 -64 -96 -66v-102q119 2 174 90q51 88 51 211v227h-227v-227z" />
    <glyph glyph-name="Ograve" unicode="&#x201d;" horiz-adv-x="872" 
d="M510 1235h121q0 -74 -23 -133q-26 -64 -96 -66v-102q119 2 174 90q51 88 51 211v227h-227v-227zM135 1235h121q0 -74 -23 -133q-26 -64 -96 -66v-102q119 2 174 90q51 88 51 211v227h-227v-227z" />
    <glyph glyph-name="Ecircumflex" unicode="&#xbb;" horiz-adv-x="948" 
d="M133 905v0v-176l205 -160l-205 -159v-177v0l311 246v180zM534 905v0v-176l205 -160l-205 -159v-177v0l312 246v180z" />
    <glyph glyph-name="Aacute" unicode="&#x2026;" horiz-adv-x="2048" 
d="M227 0h228v227h-228v-227zM909 0h228v227h-228v-227zM1591 0h227v227h-227v-227z" />
    <glyph glyph-name="Scaron" unicode="&#x2030;" horiz-adv-x="2351" 
d="M147 1096q0 -150 72 -244q70 -96 227 -98q66 0 125 22q56 21 97 70q84 116 82 260q0 153 -68 248q-70 96 -231 98q-164 -2 -234 -102q-72 -99 -70 -254v0zM301 1102q-2 84 33 159q33 76 123 78q86 -4 114 -86q15 -37 21 -78q4 -40 4 -75q0 -78 -27 -152q-14 -35 -45 -57
q-30 -25 -76 -25q-92 2 -120 80q-29 72 -27 156v0zM184 -45h176l1100 1524h-174zM895 317q0 -149 72 -243q69 -97 227 -99q65 0 125 23q55 20 96 70q84 116 82 260q0 153 -68 247q-69 97 -231 99q-164 -2 -233 -103q-72 -98 -70 -254v0zM1049 324q-3 84 32 159q33 76 123 78
q86 -4 115 -86q14 -37 20 -78q4 -41 4 -75q0 -78 -26 -152q-15 -35 -45 -57q-31 -25 -76 -25q-92 2 -121 80q-29 72 -26 156v0zM1601 317q0 -149 72 -243q70 -97 227 -99q66 0 125 23q56 20 97 70q84 116 81 260q0 153 -67 247q-70 97 -231 99q-164 -2 -234 -103
q-72 -98 -70 -254v0zM1755 324q-2 84 33 159q33 76 123 78q86 -4 114 -86q15 -37 21 -78q4 -41 4 -75q0 -78 -27 -152q-14 -35 -45 -57q-30 -25 -76 -25q-92 2 -120 80q-29 72 -27 156v0z" />
    <glyph glyph-name="fi" unicode="&#xbf;" 
d="M856 61q4 -145 -68 -237q-69 -98 -217 -100q-225 4 -247 239q-2 111 47 182q24 37 55 70q29 31 57 57q31 31 66 68q31 35 59 74q58 77 60 200v80h-174v-63q0 -51 -15 -92q-16 -41 -41 -78q-24 -37 -55 -68q-33 -33 -68 -65q-69 -62 -120 -144q-54 -80 -56 -204
q2 -195 123 -301q119 -107 309 -109q217 2 340 141q119 137 119 350h-174zM690 1059h-227v-228h227v228z" />
    <glyph glyph-name="braceright" unicode="`" horiz-adv-x="455" 
d="M221 1204h131l-176 293h-223z" />
    <glyph glyph-name="ellipsis" unicode="&#xb4;" horiz-adv-x="455" 
d="M102 1204h131l269 293h-223z" />
    <glyph glyph-name="threequarters" unicode="&#x2c6;" horiz-adv-x="455" 
d="M-80 1204h158l143 197v0l141 -197h172l-212 293h-191z" />
    <glyph glyph-name="glyph130" unicode="&#x2dc;" horiz-adv-x="455" 
d="M477 1456q-8 -33 -31 -59q-24 -31 -63 -31q-64 2 -135 41q-35 16 -72 29q-39 12 -80 12q-94 -2 -141 -66q-51 -63 -74 -159h107q0 41 32 63q31 23 66 23q29 0 66 -11q34 -12 71 -28q39 -17 76 -27q35 -14 59 -14q60 0 99 18q39 17 63 45q51 78 64 164h-107z" />
    <glyph glyph-name="Gbreve" unicode="&#xaf;" horiz-adv-x="455" 
d="M-121 1270h698v112h-698v-112z" />
    <glyph glyph-name="gbreve" unicode="&#x2d8;" horiz-adv-x="455" 
d="M-92 1497q39 -281 315 -283q277 4 324 283h-105q-14 -37 -30 -68q-17 -32 -41 -55q-43 -47 -131 -47q-179 0 -230 170h-102z" />
    <glyph glyph-name="Idotaccent" unicode="&#x2d9;" horiz-adv-x="455" 
d="M319 1425h-184v-213h184v213z" />
    <glyph glyph-name="nonbreakingspace" unicode="&#xa8;" horiz-adv-x="455" 
d="M328 1212h184v213h-184v-213zM-57 1212h184v213h-184v-213z" />
    <glyph glyph-name="Scedilla" unicode="&#x2da;" horiz-adv-x="455" 
d="M88 1356q0 59 41 100q39 39 98 39q60 0 101 -39q39 -41 39 -100q0 -60 -39 -99q-41 -41 -101 -41q-59 0 -98 41q-41 39 -41 99v0zM-4 1356q2 -99 70 -162q63 -70 161 -70q99 0 166 70q64 63 66 162q-2 98 -66 166q-67 63 -166 65q-98 -2 -161 -65q-68 -68 -70 -166v0z
" />
    <glyph glyph-name="scedilla" unicode="&#xb8;" horiz-adv-x="455" 
d="M10 -391q92 -37 189 -39q92 0 170 41q39 20 61 57q23 35 23 84q-2 76 -54 113q-51 37 -118 37q-52 0 -68 -15l-4 4l86 109h-86l-125 -160l35 -57q41 16 84 16q41 0 69 -16q27 -18 27 -47q-2 -33 -41 -49q-39 -15 -86 -15q-70 2 -125 27z" />
    <glyph glyph-name="cacute" unicode="&#x2db;" horiz-adv-x="455" 
d="M389 6q-76 -45 -123 -86q-47 -43 -71 -80q-23 -35 -31 -59q-8 -27 -8 -43q0 -57 24 -92q21 -33 51 -51q33 -15 64 -19q31 -6 49 -6q66 0 123 29q57 28 98 98l-65 37v0q-39 -60 -127 -62q-39 2 -58 29q-20 27 -20 57q-2 43 35 103q37 57 141 145h-82z" />
    <glyph glyph-name="Ccaron" unicode="&#x2c7;" horiz-adv-x="455" 
d="M534 1497h-157l-144 -197v0l-141 197h-172l213 -293h191z" />
    <glyph glyph-name="Ocircumflex" unicode="&#x2014;" horiz-adv-x="2048" 
d="M266 487h1516v164h-1516v-164z" />
    <glyph glyph-name="Atilde" unicode="&#xc6;" horiz-adv-x="1896" 
d="M-14 0h219l209 426h503v-426h916v164h-731v506h676v163h-676v465h719v164h-1096zM917 1298v-708h-428l344 708h84z" />
    <glyph glyph-name="Ydieresis" unicode="&#xaa;" horiz-adv-x="774" 
d="M649 1274q0 55 -22 92q-23 35 -64 53q-37 21 -84 29q-24 4 -47 4h-49q-121 0 -205 -47q-86 -51 -96 -170h123q4 65 51 92q45 23 119 23q61 0 110 -15q45 -20 47 -86q2 -39 -45 -55q-49 -16 -190 -31q-94 -6 -166 -51q-78 -45 -80 -152q2 -94 74 -137q67 -45 166 -45
q147 0 239 94v0q9 -94 105 -94q51 0 88 17v90q-23 -4 -45 -4q-29 -2 -29 65v328zM317 881q-51 0 -86 16q-41 16 -41 68q0 55 39 77q35 21 93 29q59 8 116 21q56 8 88 26v-96q0 -49 -45 -92q-47 -47 -164 -49v0z" />
    <glyph glyph-name="glyph142" unicode="&#x141;" 
d="M160 491v-491h968v164h-774v467l467 327v156v0l-467 -328v0v676h-194v-815l-162 -115v-155v0l162 114v0z" />
    <glyph glyph-name="Otilde" unicode="&#xd8;" horiz-adv-x="1556" 
d="M375 348v0q-103 170 -103 383q0 231 121 414q62 88 158 137q96 51 227 51q234 -4 352 -151zM1186 1108v0q98 -168 98 -377q0 -55 -6 -108q-6 -56 -21 -109q-30 -104 -92 -192q-121 -189 -387 -193q-229 2 -348 145zM1415 1495v0l-162 -178v0q-172 176 -475 180
q-346 -6 -522 -233q-178 -224 -178 -533q0 -303 170 -522l-172 -189l67 -61v0l166 182v0q170 -172 469 -176q350 6 526 236q175 223 175 530q0 297 -166 518l168 184z" />
    <glyph glyph-name="Idieresis" unicode="&#x152;" horiz-adv-x="2199" 
d="M762 129q-240 4 -365 174q-125 166 -125 416q0 256 123 432q123 178 371 182q119 -2 205 -47t127 -111q24 -34 28 -69q2 -37 2 -72v-616q-2 -127 -104 -207q-105 -82 -262 -82v0zM1128 0h989v164h-794v506h717v163h-717v465h782v164h-977v-121h-4q-47 80 -149 119
q-105 37 -211 37q-328 -4 -504 -219q-182 -213 -182 -551q0 -328 174 -541q172 -217 495 -221q117 0 220 47q102 47 157 129h4v-141z" />
    <glyph glyph-name="fraction" unicode="&#xba;" horiz-adv-x="786" 
d="M393 1452q-166 -2 -254 -96q-88 -97 -88 -244t92 -240q88 -94 252 -94q170 0 256 94q84 90 84 240q0 147 -86 244q-86 94 -256 96v0zM393 1350q72 2 135 -46q31 -24 49 -69q19 -49 19 -125q0 -94 -43 -160q-47 -69 -158 -69q-108 2 -157 71q-23 31 -35 74q-13 41 -13 86
q2 123 62 180q57 58 141 58v0z" />
    <glyph glyph-name="guilsinglleft" unicode="&#xe6;" horiz-adv-x="1782" 
d="M1548 631h-592q0 133 82 215q78 82 217 84q140 -2 215 -86q74 -84 78 -213v0zM258 285q0 96 64 137q61 41 149 53q86 14 178 29q88 10 144 43v0v-178q0 -76 -78 -154q-80 -84 -252 -86q-82 0 -141 35q-64 37 -64 121v0zM1732 477q3 256 -98 428q-106 174 -379 178
q-96 0 -188 -34q-92 -37 -150 -119v0q-22 51 -63 84q-41 30 -90 45q-103 26 -201 24q-180 0 -307 -78q-127 -81 -141 -276h174q8 115 82 160q69 41 182 41q92 2 164 -27q35 -18 57 -49q19 -33 19 -88q0 -88 -82 -113q-43 -14 -111 -24q-70 -13 -168 -31q-67 -10 -129 -29
q-63 -20 -117 -55q-51 -33 -80 -92q-32 -57 -32 -150q2 -155 106 -225q99 -72 252 -72q150 0 268 52q119 49 179 155v0q55 -114 157 -162q105 -45 225 -45q369 5 459 359h-178q-27 -103 -96 -152q-72 -53 -172 -53q-160 2 -238 104q-80 99 -80 244h776z" />
    <glyph glyph-name="onequarter" unicode="&#x131;" horiz-adv-x="455" 
d="M315 0v1059h-174v-1059h174z" />
    <glyph glyph-name="glyph148" unicode="&#x142;" horiz-adv-x="455" 
d="M141 657v-657h174v797l144 114v146v0l-144 -115v0v520h-174v-657l-143 -115v-145v0l143 112v0z" />
    <glyph glyph-name="guilsinglright" unicode="&#xf8;" horiz-adv-x="1175" 
d="M319 281v0q-61 100 -61 247q2 195 98 299q92 103 232 103q135 0 227 -97zM860 772v0q55 -92 57 -244q-2 -192 -96 -295q-92 -104 -233 -104q-131 0 -223 92zM1106 1042l-55 54v0l-119 -134v0q-129 119 -344 121q-252 -2 -381 -159q-133 -156 -133 -396q0 -227 123 -383
l-127 -141l57 -49v0l123 137v0q127 -115 338 -117q252 5 385 162q129 156 129 391q0 230 -119 379z" />
    <glyph glyph-name="Igrave" unicode="&#x153;" horiz-adv-x="1825" 
d="M1769 477q11 127 -14 238q-25 108 -82 192q-115 172 -377 176q-112 0 -215 -45q-100 -45 -159 -141v0q-54 108 -148 149q-96 39 -219 37q-244 -2 -363 -157q-118 -156 -118 -396q-2 -231 116 -389q117 -161 365 -166q123 0 219 50q96 47 148 159v0q51 -112 151 -159
q100 -50 234 -50q350 0 452 361h-166q-71 -205 -286 -207q-154 2 -232 107q-76 100 -74 241h768zM1001 631q2 135 80 217q78 80 215 82q140 -2 213 -80q76 -82 76 -219h-584zM850 532q0 -69 -10 -141q-15 -72 -50 -131q-63 -127 -235 -131q-80 0 -135 37q-55 33 -92 86
q-72 115 -70 256q-2 164 66 291q67 127 231 131q176 -4 240 -123q32 -55 45 -127q10 -72 10 -148v0z" />
    <glyph glyph-name="approxequal" unicode="&#xdf;" 
d="M131 0h174v1057q0 86 21 143q18 55 49 86q65 59 174 57q100 -2 164 -65q61 -66 63 -166q-2 -139 -92 -193q-90 -53 -219 -45v-139q174 2 274 -53q101 -59 103 -254q0 -133 -82 -215q-82 -84 -226 -84q-34 -2 -69 6v-151q45 -7 88 -9q215 2 344 134q127 129 129 342
q0 139 -70 243q-69 103 -209 123v4q218 82 213 318q-4 178 -135 270q-131 88 -288 88q-183 -2 -293 -113q-113 -110 -113 -297v-1087z" />
    <glyph glyph-name="Ugrave" unicode="&#xf7;" horiz-adv-x="1229" 
d="M98 448h1032v140h-1032v-140zM483 940q0 -53 41 -90q39 -41 92 -41q54 0 93 41q34 39 36 90q0 53 -38 92q-39 39 -93 39q-53 -2 -90 -37q-41 -37 -41 -94v0zM483 96q0 -53 41 -90q39 -39 92 -41q54 2 93 41q34 39 36 90q0 53 -38 92q-39 39 -93 39q-53 -2 -90 -37
q-41 -36 -41 -94v0z" />
    <glyph glyph-name="glyph153" unicode="&#xbe;" horiz-adv-x="1708" 
d="M1515 879h-104l-430 -564v-118h407v-197h127v197h123v112h-123v570zM1386 696h4v-395h-307zM440 -57h131l891 1542h-131zM362 977h68q76 0 133 -35q55 -37 57 -123q-2 -67 -57 -106q-55 -41 -135 -41q-182 2 -188 176h-140q2 -141 97 -215q92 -74 231 -74q135 0 231 68
q99 63 101 198q0 82 -43 137q-45 56 -135 72v4q59 25 100 72q39 43 39 102q-2 121 -84 183q-84 57 -213 57q-281 -6 -303 -289h139q0 80 41 127t123 49q70 0 115 -30q41 -35 43 -97q-2 -69 -50 -100q-51 -33 -120 -33h-50v-102z" />
    <glyph glyph-name="glyph154" unicode="&#xbc;" horiz-adv-x="1708" 
d="M1481 879h-105l-430 -564v-118h408v-197h127v197h122v112h-122v570zM1350 704h4v-395h-308zM307 -57h131l891 1542h-131zM448 1452h-102q-20 -84 -96 -115q-76 -33 -176 -30v-103h235v-631h139v879z" />
    <glyph glyph-name="uni00B9" unicode="&#xb9;" horiz-adv-x="682" 
d="M510 1452h-102q-21 -84 -97 -113q-75 -30 -176 -32v-103h236v-631h139v879z" />
    <glyph glyph-name="multiply" unicode="&#xd7;" horiz-adv-x="1229" 
d="M244 49v0l372 373v0l371 -373v0l98 98l-370 373l368 369l-98 98v0l-369 -369v0l-370 369v0l-99 -98l371 -369l-373 -373z" />
    <glyph glyph-name="Delta" unicode="&#xae;" horiz-adv-x="1638" 
d="M49 735q4 -336 230 -549q221 -217 542 -221q322 4 543 221q221 213 225 549q-4 332 -225 545t-543 217q-321 -4 -542 -217q-226 -213 -230 -545v0zM188 735q2 283 185 463q176 182 448 186q275 -4 449 -186q176 -180 180 -463q-4 -284 -180 -467q-174 -188 -449 -190
q-272 2 -448 190q-183 183 -185 467v0zM522 285h139v385h148l244 -385h149l-256 395q105 10 170 67q64 58 66 177q2 256 -314 256h-346v-895zM661 1067h185q73 0 135 -23q59 -28 61 -114q0 -51 -16 -80q-18 -31 -53 -45q-70 -25 -166 -23h-146v285z" />
    <glyph glyph-name="glyph158" unicode="&#xde;" horiz-adv-x="1327" 
d="M354 0v365h447q444 10 448 430q-4 428 -448 434h-447v233h-194v-1462h194zM354 1065h381q322 -2 320 -270q2 -265 -320 -267h-381v537z" />
    <glyph glyph-name="glyph159" unicode="&#xa6;" horiz-adv-x="455" 
d="M158 -182h139v512h-139v-512zM297 1354h-139v-512h139v512z" />
    <glyph glyph-name="glyph160" unicode="&#xd0;" horiz-adv-x="1442" 
d="M160 0h501q709 8 703 766q-6 698 -703 696h-501v-629h-144v-139h144v-694zM354 1298h328q500 -10 487 -559q-2 -198 -55 -313q-57 -117 -139 -174q-82 -55 -162 -72q-82 -16 -135 -16h-324v530h439v139h-439v465z" />
    <glyph glyph-name="glyph161" unicode="&#xbd;" horiz-adv-x="1708" 
d="M276 -57h132l890 1542h-131zM448 1452h-102q-20 -84 -96 -115q-76 -33 -176 -30v-103h235v-631h139v879zM1167 563q0 82 39 144q39 57 129 59q74 0 121 -39t49 -104q0 -86 -57 -142q-62 -57 -180 -125q-50 -26 -93 -57q-45 -31 -79 -70q-72 -77 -84 -229h620v113h-481
q22 63 98 112q74 47 164 99q45 26 88 57q41 29 72 61q69 66 71 178q-2 125 -88 193q-86 66 -215 66q-143 -3 -227 -86q-86 -86 -86 -230h139z" />
    <glyph glyph-name="glyph162" unicode="&#x2212;" horiz-adv-x="1229" 
d="M98 448h1032v140h-1032v-140z" />
    <glyph glyph-name="acute" unicode="&#xe7;" horiz-adv-x="1100" 
d="M1030 719q-22 190 -145 278q-127 86 -312 86q-251 -2 -374 -164q-125 -157 -125 -403q0 -225 114 -371q113 -143 328 -165l-108 -140l34 -57q41 16 84 16q41 0 70 -16q27 -18 27 -47q-3 -33 -41 -49q-39 -15 -86 -15q-70 2 -125 27l-37 -90q92 -37 188 -39q92 0 170 41
q39 20 62 57q22 35 22 84q-2 76 -53 113t-119 37q-51 0 -67 -15l-5 4l68 86q377 27 436 410h-178q-37 -254 -291 -258q-164 2 -235 123q-76 115 -74 264q-2 170 72 289q73 121 258 125q219 -4 262 -211h180z" />
    <glyph glyph-name="glyph164" unicode="&#xf0;" horiz-adv-x="1175" 
d="M557 1036q-233 -4 -358 -153q-125 -148 -125 -355q0 -235 133 -391q129 -157 381 -162q252 5 385 162q129 156 129 391q2 477 -357 785l236 108l-72 76v0l-245 -115v0q-91 70 -158 115l-144 -92q70 -39 144 -98l-223 -105l77 -82v0l236 111v0q53 -35 127 -117
q72 -84 123 -192h-4q-56 63 -127 90q-74 24 -158 24v0zM577 883q181 -2 263 -107q77 -102 77 -248q-2 -192 -96 -295q-92 -104 -233 -104q-140 0 -232 104q-96 103 -98 295q0 160 82 258q80 95 237 97v0z" />
    <glyph glyph-name="oe" unicode="&#xb1;" horiz-adv-x="1229" 
d="M98 555h447v-342h139v342h446v139h-446v340h-139v-340h-447v-139zM98 0h1032v139h-1032v-139z" />
    <glyph glyph-name="dagger" unicode="&#xc7;" horiz-adv-x="1479" 
d="M1382 1022q-39 233 -202 354q-164 121 -400 121q-338 -4 -514 -225q-178 -217 -178 -545q0 -309 152 -518q149 -209 456 -240l-100 -129l35 -57q41 16 84 16q41 0 69 -16q27 -18 27 -47q-2 -33 -41 -49q-39 -15 -86 -15q-70 2 -125 27l-37 -90q92 -37 189 -39
q92 0 170 41q38 20 61 57q23 35 23 84q-3 76 -54 113t-118 37q-52 0 -68 -15l-4 4l59 76q549 27 617 584h-195q-12 -184 -121 -301q-106 -119 -301 -121q-129 0 -223 51q-94 47 -156 131q-120 174 -118 430q-2 238 118 412q119 176 377 180q156 0 266 -76q111 -79 144 -235
h194z" />
    <glyph glyph-name="glyph167" unicode="&#xfe;" horiz-adv-x="1214" 
d="M956 539q2 -160 -67 -281q-74 -127 -250 -129q-176 2 -256 123q-78 117 -78 278q-2 158 76 277q76 119 248 123q168 -4 250 -119q77 -117 77 -272v0zM311 1462h-174v-1867h174v546h4q31 -45 74 -75q41 -33 88 -54q96 -37 180 -37q242 5 365 164q119 158 119 387
q0 232 -119 391q-123 162 -369 166q-108 0 -200 -39q-93 -39 -138 -129h-4v547z" />
    <glyph glyph-name="guillemotleft" unicode="&#xa9;" horiz-adv-x="1638" 
d="M49 735q4 -336 230 -549q221 -217 542 -221q322 4 543 221q221 213 225 549q-4 332 -225 545t-543 217q-321 -4 -542 -217q-226 -213 -230 -545v0zM188 735q2 281 185 463q176 182 448 186q275 -4 449 -186q176 -182 180 -463q-4 -284 -180 -467q-174 -188 -449 -190
q-272 2 -448 190q-183 183 -185 467v0zM1096 584q-15 -90 -80 -148q-66 -61 -170 -61q-146 2 -230 108q-86 103 -86 252q0 152 82 250q78 98 230 100q102 -2 172 -55q65 -55 82 -143h129q-25 153 -129 233q-107 78 -256 78q-211 -2 -328 -129q-121 -129 -121 -338
q0 -203 125 -334q123 -133 330 -135q299 6 381 322h-131z" />
    <glyph glyph-name="daggerdbl" unicode="&#xac;" horiz-adv-x="1229" 
d="M1130 795h-1032v-140h893v-432h139v572z" />
    <glyph glyph-name="uni00B2" unicode="&#xb2;" horiz-adv-x="682" 
d="M184 1137q0 81 39 143q39 57 129 59q74 0 121 -39t49 -104q0 -86 -57 -141q-62 -58 -180 -125q-49 -27 -93 -58q-45 -30 -79 -69q-72 -78 -84 -230h620v113h-481q22 64 98 113q74 47 164 98q45 27 88 57q41 29 72 62q69 65 71 178q-2 125 -88 192q-86 66 -215 66
q-143 -2 -227 -86q-86 -86 -86 -229h139z" />
    <glyph glyph-name="uni00B3" unicode="&#xb3;" horiz-adv-x="682" 
d="M270 977h68q76 0 133 -35q55 -37 57 -123q-2 -67 -57 -106q-55 -41 -135 -41q-182 2 -189 176h-139q2 -141 96 -215q93 -74 232 -74q135 0 231 68q99 63 101 198q0 82 -43 137q-45 56 -136 72v4q60 25 101 72q39 43 39 102q-2 121 -84 183q-84 57 -213 57
q-281 -6 -303 -289h139q0 80 41 127t123 49q69 0 114 -30q41 -35 43 -97q-2 -69 -49 -100q-51 -33 -121 -33h-49v-102z" />
    <glyph glyph-name="guillemotright" unicode="&#x2122;" horiz-adv-x="2027" 
d="M799 1462h-668v-112h264v-732h139v732h265v112zM1898 1462h-213l-247 -641v0l-252 641h-215v-844h139v705h4l276 -705h89l276 705h4v-705h139v844z" />
    <glyph glyph-name="oslash" unicode="&#xb0;" horiz-adv-x="819" 
d="M115 1157q2 -125 86 -209t209 -86q127 2 208 86q84 84 86 209q-2 127 -86 209q-81 84 -208 86q-125 -2 -209 -86q-84 -82 -86 -209v0zM217 1157q0 78 53 135q49 55 140 58q94 -3 143 -58q49 -57 49 -135q0 -74 -49 -131q-49 -59 -143 -61q-91 2 -140 61q-53 57 -53 131v0
z" />
    <glyph glyph-name="quotedblright" unicode="&#xb5;" 
d="M1008 1059h-175v-598q0 -144 -75 -236q-78 -94 -238 -96q-211 4 -215 213v717h-174v-1464h174v458h4q53 -78 187 -78q231 0 344 193h4v-168h164v1059z" />
    <glyph glyph-name="circumflex" unicode="&#xff;" horiz-adv-x="1024" 
d="M1008 1059h-185l-297 -867h-4l-309 867h-197l420 -1053l-71 -180q-23 -45 -56 -70q-33 -24 -88 -26q-53 2 -102 24v-159q59 -19 121 -19q114 0 184 66q67 65 123 217zM619 1212h184v213h-184v-213zM234 1212h184v213h-184v-213z" />
    <glyph glyph-name="glyph176" unicode="&#xfd;" horiz-adv-x="1024" 
d="M1008 1059h-185l-297 -867h-4l-309 867h-197l420 -1053l-71 -180q-23 -45 -56 -70q-33 -24 -88 -26q-53 2 -102 24v-159q59 -19 121 -19q114 0 184 66q67 65 123 217zM399 1204h131l269 293h-223z" />
    <glyph glyph-name="ordfeminine" unicode="&#xf9;" 
d="M1008 1059h-175v-598q0 -144 -75 -236q-78 -94 -238 -96q-211 4 -215 213v717h-174v-697q-2 -172 80 -276q80 -109 285 -111q231 0 344 193h4v-168h164v1059zM566 1204h131l-176 293h-223z" />
    <glyph glyph-name="Omega" unicode="&#xfc;" 
d="M1008 1059h-175v-598q0 -144 -75 -236q-78 -94 -238 -96q-211 4 -215 213v717h-174v-697q-2 -172 80 -276q80 -109 285 -111q231 0 344 193h4v-168h164v1059zM673 1212h184v213h-184v-213zM288 1212h184v213h-184v-213z" />
    <glyph glyph-name="ordmasculine" unicode="&#xfb;" 
d="M1008 1059h-175v-598q0 -144 -75 -236q-78 -94 -238 -96q-211 4 -215 213v717h-174v-697q-2 -172 80 -276q80 -109 285 -111q231 0 344 193h4v-168h164v1059zM264 1204h158l143 197v0l141 -197h172l-212 293h-191z" />
    <glyph glyph-name="integral" unicode="&#xfa;" 
d="M1008 1059h-175v-598q0 -144 -75 -236q-78 -94 -238 -96q-211 4 -215 213v717h-174v-697q-2 -172 80 -276q80 -109 285 -111q231 0 344 193h4v-168h164v1059zM451 1204h131l269 293h-223z" />
    <glyph glyph-name="glyph181" unicode="&#x161;" horiz-adv-x="1024" 
d="M63 334q15 -193 142 -277q125 -82 307 -82q170 0 307 74q139 76 143 260q0 78 -28 129q-29 51 -78 84q-49 35 -111 55q-61 21 -129 33q-59 17 -118 31q-62 12 -113 31q-49 18 -82 49q-33 29 -33 74q2 79 76 108q70 27 150 27q90 0 161 -37q72 -41 84 -141h174
q-12 190 -133 264q-121 69 -301 67q-145 0 -266 -69q-57 -37 -92 -92q-37 -60 -37 -140q0 -73 33 -125q28 -51 78 -84q49 -32 110 -53q31 -8 64 -18q30 -8 61 -19q137 -22 240 -59q49 -21 78 -53q28 -33 28 -84q0 -47 -22 -78q-25 -31 -64 -49q-37 -17 -82 -23
q-43 -8 -88 -8q-110 -2 -192 45q-82 45 -92 160h-175zM822 1497h-157l-144 -197v0l-141 197h-172l213 -293h191z" />
    <glyph glyph-name="pi" unicode="&#xf5;" horiz-adv-x="1175" 
d="M74 528q0 -235 133 -391q129 -157 381 -162q252 5 385 162q129 156 129 391q0 240 -129 396q-133 157 -385 159q-252 -2 -381 -159q-133 -156 -133 -396v0zM258 528q2 195 98 299q92 103 232 103q141 0 233 -103q94 -104 96 -299q-2 -192 -96 -295q-92 -104 -233 -104
q-140 0 -232 104q-96 103 -98 295v0zM843 1456q-8 -33 -31 -59q-24 -31 -63 -31q-64 2 -135 41q-35 16 -72 29q-39 12 -80 12q-94 -2 -141 -66q-51 -63 -74 -159h107q0 41 32 63q31 23 66 23q29 0 66 -11q34 -12 71 -28q39 -17 76 -27q35 -14 59 -14q60 0 99 18q39 17 63 45
q51 78 64 164h-107z" />
    <glyph glyph-name="partialdiff" unicode="&#xf2;" horiz-adv-x="1175" 
d="M74 528q0 -235 133 -391q129 -157 381 -162q252 5 385 162q129 156 129 391q0 240 -129 396q-133 157 -385 159q-252 -2 -381 -159q-133 -156 -133 -396v0zM258 528q2 195 98 299q92 103 232 103q141 0 233 -103q94 -104 96 -299q-2 -192 -96 -295q-92 -104 -233 -104
q-140 0 -232 104q-96 103 -98 295v0zM590 1204h131l-176 293h-223z" />
    <glyph glyph-name="product" unicode="&#xf6;" horiz-adv-x="1175" 
d="M74 528q0 -235 133 -391q129 -157 381 -162q252 5 385 162q129 156 129 391q0 240 -129 396q-133 157 -385 159q-252 -2 -381 -159q-133 -156 -133 -396v0zM258 528q2 195 98 299q92 103 232 103q141 0 233 -103q94 -104 96 -299q-2 -192 -96 -295q-92 -104 -233 -104
q-140 0 -232 104q-96 103 -98 295v0zM695 1212h184v213h-184v-213zM310 1212h184v213h-184v-213z" />
    <glyph glyph-name="summation" unicode="&#xf4;" horiz-adv-x="1175" 
d="M74 528q0 -235 133 -391q129 -157 381 -162q252 5 385 162q129 156 129 391q0 240 -129 396q-133 157 -385 159q-252 -2 -381 -159q-133 -156 -133 -396v0zM258 528q2 195 98 299q92 103 232 103q141 0 233 -103q94 -104 96 -299q-2 -192 -96 -295q-92 -104 -233 -104
q-140 0 -232 104q-96 103 -98 295v0zM288 1204h158l143 197v0l141 -197h172l-212 293h-191z" />
    <glyph glyph-name="mu" unicode="&#xf3;" horiz-adv-x="1175" 
d="M74 528q0 -235 133 -391q129 -157 381 -162q252 5 385 162q129 156 129 391q0 240 -129 396q-133 157 -385 159q-252 -2 -381 -159q-133 -156 -133 -396v0zM258 528q2 195 98 299q92 103 232 103q141 0 233 -103q94 -104 96 -299q-2 -192 -96 -295q-92 -104 -233 -104
q-140 0 -232 104q-96 103 -98 295v0zM475 1204h131l269 293h-223z" />
    <glyph glyph-name="yen" unicode="&#xf1;" 
d="M131 0h174v598q0 147 80 240q78 90 233 92q211 -6 215 -213v-717h175v696q2 174 -76 281q-82 104 -289 106q-229 0 -344 -192h-4v168h-164v-1059zM822 1456q-8 -33 -31 -59q-24 -31 -63 -31q-64 2 -135 41q-35 16 -72 29q-39 12 -80 12q-94 -2 -141 -66q-51 -63 -74 -159
h107q0 41 32 63q31 23 66 23q29 0 66 -11q34 -12 71 -28q39 -17 76 -27q35 -14 59 -14q60 0 99 18q39 17 63 45q51 78 64 164h-107z" />
    <glyph glyph-name="plusminus" unicode="&#xec;" horiz-adv-x="455" 
d="M315 0v1059h-174v-1059h174zM216 1204h131l-176 293h-223z" />
    <glyph glyph-name="greaterequal" unicode="&#xef;" horiz-adv-x="455" 
d="M315 0v1059h-174v-1059h174zM320 1212h184v213h-184v-213zM-65 1212h184v213h-184v-213z" />
    <glyph glyph-name="lessequal" unicode="&#xee;" horiz-adv-x="455" 
d="M315 0v1059h-174v-1059h174zM-87 1204h158l143 197v0l141 -197h172l-212 293h-191z" />
    <glyph glyph-name="infinity" unicode="&#xed;" horiz-adv-x="455" 
d="M315 0v1059h-174v-1059h174zM101 1204h131l269 293h-223z" />
    <glyph glyph-name="notequal" unicode="&#xe8;" horiz-adv-x="1100" 
d="M862 336q-53 -207 -274 -207q-172 2 -252 107q-82 100 -78 241h793q12 207 -95 402q-106 198 -385 204q-219 -2 -356 -155q-139 -152 -141 -396q8 -247 133 -399q123 -153 375 -158q368 5 452 361h-172zM258 631q10 127 90 213q78 84 213 86q133 -2 215 -86t90 -213h-608
zM552 1204h131l-176 293h-223z" />
    <glyph glyph-name="Oslash" unicode="&#xeb;" horiz-adv-x="1100" 
d="M862 336q-53 -207 -274 -207q-172 2 -252 107q-82 100 -78 241h793q12 207 -95 402q-106 198 -385 204q-219 -2 -356 -155q-139 -152 -141 -396q8 -247 133 -399q123 -153 375 -158q368 5 452 361h-172zM258 631q10 127 90 213q78 84 213 86q133 -2 215 -86t90 -213h-608
zM656 1212h184v213h-184v-213zM271 1212h184v213h-184v-213z" />
    <glyph glyph-name="AE" unicode="&#xea;" horiz-adv-x="1100" 
d="M862 336q-53 -207 -274 -207q-172 2 -252 107q-82 100 -78 241h793q12 207 -95 402q-106 198 -385 204q-219 -2 -356 -155q-139 -152 -141 -396q8 -247 133 -399q123 -153 375 -158q368 5 452 361h-172zM258 631q10 127 90 213q78 84 213 86q133 -2 215 -86t90 -213h-608
zM249 1204h158l143 197v0l141 -197h172l-212 293h-191z" />
    <glyph glyph-name="dieresis" unicode="&#xe9;" horiz-adv-x="1100" 
d="M862 336q-53 -207 -274 -207q-172 2 -252 107q-82 100 -78 241h793q12 207 -95 402q-106 198 -385 204q-219 -2 -356 -155q-139 -152 -141 -396q8 -247 133 -399q123 -153 375 -158q368 5 452 361h-172zM258 631q10 127 90 213q78 84 213 86q133 -2 215 -86t90 -213h-608
zM437 1204h131l269 293h-223z" />
    <glyph glyph-name="copyright" unicode="&#xe3;" horiz-adv-x="1100" 
d="M786 547v-178q0 -76 -73 -154q-39 -37 -101 -59q-63 -27 -149 -27q-82 0 -141 35q-64 37 -64 121q0 96 64 137q61 41 149 53q90 14 178 27q86 10 137 45v0zM1069 139q-33 -10 -53 -10q-39 0 -47 31q-11 26 -9 88v545q0 94 -32 151q-35 57 -92 88q-56 31 -127 43
q-72 8 -146 8q-180 0 -307 -78q-127 -81 -141 -276h174q8 115 82 160q69 41 182 41q88 2 160 -31q34 -18 57 -51q18 -37 18 -94q-2 -93 -104 -113q-49 -12 -113 -21q-65 -8 -139 -22q-67 -10 -129 -29q-63 -20 -117 -55q-51 -33 -80 -92q-32 -57 -32 -150q2 -155 104 -225
q98 -72 246 -72q225 0 373 164v0q2 -166 147 -164q82 0 125 29v135zM805 1456q-8 -33 -31 -59q-24 -31 -63 -31q-64 2 -135 41q-35 16 -72 29q-39 12 -80 12q-94 -2 -141 -66q-51 -63 -74 -159h107q0 41 32 63q31 23 66 23q29 0 66 -11q34 -12 71 -28q39 -17 76 -27
q35 -14 59 -14q60 0 99 18q39 17 63 45q51 78 64 164h-107z" />
    <glyph glyph-name="trademark" unicode="&#xe5;" horiz-adv-x="1100" 
d="M786 547v-178q0 -76 -73 -154q-39 -37 -101 -59q-63 -27 -149 -27q-82 0 -141 35q-64 37 -64 121q0 96 64 137q61 41 149 53q90 14 178 27q86 10 137 45v0zM1069 139q-33 -10 -53 -10q-39 0 -47 31q-11 26 -9 88v545q0 94 -32 151q-35 57 -92 88q-56 31 -127 43
q-72 8 -146 8q-180 0 -307 -78q-127 -81 -141 -276h174q8 115 82 160q69 41 182 41q88 2 160 -31q34 -18 57 -51q18 -37 18 -94q-2 -93 -104 -113q-49 -12 -113 -21q-65 -8 -139 -22q-67 -10 -129 -29q-63 -20 -117 -55q-51 -33 -80 -92q-32 -57 -32 -150q2 -155 104 -225
q98 -72 246 -72q225 0 373 164v0q2 -166 147 -164q82 0 125 29v135zM420 1356q0 59 41 100q39 39 98 39q60 0 101 -39q39 -41 39 -100q0 -60 -39 -99q-41 -41 -101 -41q-59 0 -98 41q-41 39 -41 99v0zM328 1356q2 -99 70 -162q63 -70 161 -70q99 0 166 70q64 63 66 162
q-2 98 -66 166q-67 63 -166 65q-98 -2 -161 -65q-68 -68 -70 -166v0z" />
    <glyph glyph-name="paragraph" unicode="&#xe0;" horiz-adv-x="1100" 
d="M786 547v-178q0 -76 -73 -154q-39 -37 -101 -59q-63 -27 -149 -27q-82 0 -141 35q-64 37 -64 121q0 96 64 137q61 41 149 53q90 14 178 27q86 10 137 45v0zM1069 139q-33 -10 -53 -10q-39 0 -47 31q-11 26 -9 88v545q0 94 -32 151q-35 57 -92 88q-56 31 -127 43
q-72 8 -146 8q-180 0 -307 -78q-127 -81 -141 -276h174q8 115 82 160q69 41 182 41q88 2 160 -31q34 -18 57 -51q18 -37 18 -94q-2 -93 -104 -113q-49 -12 -113 -21q-65 -8 -139 -22q-67 -10 -129 -29q-63 -20 -117 -55q-51 -33 -80 -92q-32 -57 -32 -150q2 -155 104 -225
q98 -72 246 -72q225 0 373 164v0q2 -166 147 -164q82 0 125 29v135zM552 1204h131l-176 293h-223z" />
    <glyph glyph-name="registered" unicode="&#xe4;" horiz-adv-x="1100" 
d="M786 547v-178q0 -76 -73 -154q-39 -37 -101 -59q-63 -27 -149 -27q-82 0 -141 35q-64 37 -64 121q0 96 64 137q61 41 149 53q90 14 178 27q86 10 137 45v0zM1069 139q-33 -10 -53 -10q-39 0 -47 31q-11 26 -9 88v545q0 94 -32 151q-35 57 -92 88q-56 31 -127 43
q-72 8 -146 8q-180 0 -307 -78q-127 -81 -141 -276h174q8 115 82 160q69 41 182 41q88 2 160 -31q34 -18 57 -51q18 -37 18 -94q-2 -93 -104 -113q-49 -12 -113 -21q-65 -8 -139 -22q-67 -10 -129 -29q-63 -20 -117 -55q-51 -33 -80 -92q-32 -57 -32 -150q2 -155 104 -225
q98 -72 246 -72q225 0 373 164v0q2 -166 147 -164q82 0 125 29v135zM656 1212h184v213h-184v-213zM271 1212h184v213h-184v-213z" />
    <glyph glyph-name="germandbls" unicode="&#xe2;" horiz-adv-x="1100" 
d="M786 547v-178q0 -76 -73 -154q-39 -37 -101 -59q-63 -27 -149 -27q-82 0 -141 35q-64 37 -64 121q0 96 64 137q61 41 149 53q90 14 178 27q86 10 137 45v0zM1069 139q-33 -10 -53 -10q-39 0 -47 31q-11 26 -9 88v545q0 94 -32 151q-35 57 -92 88q-56 31 -127 43
q-72 8 -146 8q-180 0 -307 -78q-127 -81 -141 -276h174q8 115 82 160q69 41 182 41q88 2 160 -31q34 -18 57 -51q18 -37 18 -94q-2 -93 -104 -113q-49 -12 -113 -21q-65 -8 -139 -22q-67 -10 -129 -29q-63 -20 -117 -55q-51 -33 -80 -92q-32 -57 -32 -150q2 -155 104 -225
q98 -72 246 -72q225 0 373 164v0q2 -166 147 -164q82 0 125 29v135zM249 1204h158l143 197v0l141 -197h172l-212 293h-191z" />
    <glyph glyph-name="bullet" unicode="&#xe1;" horiz-adv-x="1100" 
d="M786 547v-178q0 -76 -73 -154q-39 -37 -101 -59q-63 -27 -149 -27q-82 0 -141 35q-64 37 -64 121q0 96 64 137q61 41 149 53q90 14 178 27q86 10 137 45v0zM1069 139q-33 -10 -53 -10q-39 0 -47 31q-11 26 -9 88v545q0 94 -32 151q-35 57 -92 88q-56 31 -127 43
q-72 8 -146 8q-180 0 -307 -78q-127 -81 -141 -276h174q8 115 82 160q69 41 182 41q88 2 160 -31q34 -18 57 -51q18 -37 18 -94q-2 -93 -104 -113q-49 -12 -113 -21q-65 -8 -139 -22q-67 -10 -129 -29q-63 -20 -117 -55q-51 -33 -80 -92q-32 -57 -32 -150q2 -155 104 -225
q98 -72 246 -72q225 0 373 164v0q2 -166 147 -164q82 0 125 29v135zM437 1204h131l269 293h-223z" />
    <glyph glyph-name="tilde" unicode="&#x178;" horiz-adv-x="1327" 
d="M1323 1462h-221l-428 -696v0l-438 696h-232l565 -864v-598h195v598zM776 1574h184v213h-184v-213zM391 1574h184v213h-184v-213z" />
    <glyph glyph-name="glyph203" unicode="&#xdd;" horiz-adv-x="1327" 
d="M1323 1462h-221l-428 -696v0l-438 696h-232l565 -864v-598h195v598zM554 1566h131l269 293h-223z" />
    <glyph glyph-name="onehalf" unicode="&#xd9;" horiz-adv-x="1479" 
d="M1327 1462h-195v-934q-4 -397 -380 -399q-402 2 -406 399v934h-194v-934q8 -567 600 -563q567 4 575 563v934zM742 1566h131l-176 293h-223z" />
    <glyph glyph-name="section" unicode="&#xdc;" horiz-adv-x="1479" 
d="M1327 1462h-195v-934q-4 -397 -380 -399q-402 2 -406 399v934h-194v-934q8 -567 600 -563q567 4 575 563v934zM849 1574h184v213h-184v-213zM464 1574h184v213h-184v-213z" />
    <glyph glyph-name="threesuperior" unicode="&#xdb;" horiz-adv-x="1479" 
d="M1327 1462h-195v-934q-4 -397 -380 -399q-402 2 -406 399v934h-194v-934q8 -567 600 -563q567 4 575 563v934zM442 1566h158l143 197v0l141 -197h172l-212 293h-191z" />
    <glyph glyph-name="twosuperior" unicode="&#xda;" horiz-adv-x="1479" 
d="M1327 1462h-195v-934q-4 -397 -380 -399q-402 2 -406 399v934h-194v-934q8 -567 600 -563q567 4 575 563v934zM630 1566h131l269 293h-223z" />
    <glyph glyph-name="glyph208" unicode="&#x160;" horiz-adv-x="1327" 
d="M1190 1034q-15 242 -160 354q-149 109 -379 109q-207 0 -362 -102q-164 -103 -168 -326q4 -195 147 -272q35 -21 74 -37q37 -15 78 -31q43 -12 86 -22q41 -13 84 -25q90 -16 174 -35q82 -20 147 -51q70 -31 107 -76q39 -49 39 -125t-31 -129q-33 -51 -86 -82
q-53 -28 -119 -41q-67 -14 -135 -14q-172 0 -295 84q-129 86 -131 268h-184q4 -266 180 -391q172 -125 424 -125q211 0 387 103q178 102 184 333q0 107 -39 181q-37 73 -106 118q-66 50 -148 78q-41 15 -84 27q-43 10 -90 18q-86 21 -170 39q-84 19 -151 45q-66 27 -105 70
q-43 39 -43 106q2 144 103 199q98 51 225 51q315 4 362 -299h185zM980 1859h-157l-144 -197v0l-141 197h-172l213 -293h191z" />
    <glyph glyph-name="Icircumflex" unicode="&#xd5;" horiz-adv-x="1556" 
d="M78 731q0 -307 178 -530q176 -230 522 -236q350 6 526 236q175 223 175 530q0 309 -175 533q-176 227 -526 233q-346 -6 -522 -233q-178 -224 -178 -533v0zM272 731q0 231 121 414q62 88 158 137q96 51 227 51q135 0 232 -51q94 -49 155 -137q119 -183 119 -414
q0 -55 -6 -108q-6 -56 -21 -109q-30 -104 -92 -192q-121 -189 -387 -193q-264 4 -385 193q-59 88 -90 192q-31 106 -31 217v0zM1039 1818q-8 -33 -31 -59q-24 -31 -63 -31q-64 2 -135 41q-35 16 -72 29q-39 12 -80 12q-94 -2 -141 -66q-51 -63 -74 -159h107q0 41 32 63
q31 23 66 23q29 0 66 -11q34 -12 71 -28q39 -17 76 -27q35 -14 59 -14q60 0 99 18q39 17 63 45q51 78 64 164h-107z" />
    <glyph glyph-name="onesuperior" unicode="&#xd2;" horiz-adv-x="1556" 
d="M78 731q0 -307 178 -530q176 -230 522 -236q350 6 526 236q175 223 175 530q0 309 -175 533q-176 227 -526 233q-346 -6 -522 -233q-178 -224 -178 -533v0zM272 731q0 231 121 414q62 88 158 137q96 51 227 51q135 0 232 -51q94 -49 155 -137q119 -183 119 -414
q0 -55 -6 -108q-6 -56 -21 -109q-30 -104 -92 -192q-121 -189 -387 -193q-264 4 -385 193q-59 88 -90 192q-31 106 -31 217v0zM785 1566h131l-176 293h-223z" />
    <glyph glyph-name="sterling" unicode="&#xd6;" horiz-adv-x="1556" 
d="M78 731q0 -307 178 -530q176 -230 522 -236q350 6 526 236q175 223 175 530q0 309 -175 533q-176 227 -526 233q-346 -6 -522 -233q-178 -224 -178 -533v0zM272 731q0 231 121 414q62 88 158 137q96 51 227 51q135 0 232 -51q94 -49 155 -137q119 -183 119 -414
q0 -55 -6 -108q-6 -56 -21 -109q-30 -104 -92 -192q-121 -189 -387 -193q-264 4 -385 193q-59 88 -90 192q-31 106 -31 217v0zM892 1574h184v213h-184v-213zM507 1574h184v213h-184v-213z" />
    <glyph glyph-name="minus" unicode="&#xd4;" horiz-adv-x="1556" 
d="M78 731q0 -307 178 -530q176 -230 522 -236q350 6 526 236q175 223 175 530q0 309 -175 533q-176 227 -526 233q-346 -6 -522 -233q-178 -224 -178 -533v0zM272 731q0 231 121 414q62 88 158 137q96 51 227 51q135 0 232 -51q94 -49 155 -137q119 -183 119 -414
q0 -55 -6 -108q-6 -56 -21 -109q-30 -104 -92 -192q-121 -189 -387 -193q-264 4 -385 193q-59 88 -90 192q-31 106 -31 217v0zM483 1566h158l143 197v0l141 -197h172l-212 293h-191z" />
    <glyph glyph-name="thorn" unicode="&#xd3;" horiz-adv-x="1556" 
d="M78 731q0 -307 178 -530q176 -230 522 -236q350 6 526 236q175 223 175 530q0 309 -175 533q-176 227 -526 233q-346 -6 -522 -233q-178 -224 -178 -533v0zM272 731q0 231 121 414q62 88 158 137q96 51 227 51q135 0 232 -51q94 -49 155 -137q119 -183 119 -414
q0 -55 -6 -108q-6 -56 -21 -109q-30 -104 -92 -192q-121 -189 -387 -193q-264 4 -385 193q-59 88 -90 192q-31 106 -31 217v0zM670 1566h131l269 293h-223z" />
    <glyph glyph-name="cent" unicode="&#xd1;" horiz-adv-x="1479" 
d="M158 0h184v1173h4l764 -1173h213v1462h-184v-1186h-4l-770 1186h-207v-1462zM998 1818q-8 -33 -31 -59q-24 -31 -63 -31q-64 2 -135 41q-35 16 -72 29q-39 12 -80 12q-94 -2 -141 -66q-51 -63 -74 -159h107q0 41 32 63q31 23 66 23q29 0 66 -11q34 -12 71 -28
q39 -17 76 -27q35 -14 59 -14q60 0 99 18q39 17 63 45q51 78 64 164h-107z" />
    <glyph glyph-name="Thorn" unicode="&#xcc;" horiz-adv-x="530" 
d="M168 0h194v1462h-194v-1462zM255 1566h131l-176 293h-223z" />
    <glyph glyph-name="yacute" unicode="&#xcf;" horiz-adv-x="530" 
d="M168 0h194v1462h-194v-1462zM362 1574h184v213h-184v-213zM-23 1574h184v213h-184v-213z" />
    <glyph glyph-name="Yacute" unicode="&#xce;" horiz-adv-x="530" 
d="M168 0h194v1462h-194v-1462zM-48 1566h158l143 197v0l141 -197h172l-212 293h-191z" />
    <glyph glyph-name="eth" unicode="&#xcd;" horiz-adv-x="530" 
d="M168 0h194v1462h-194v-1462zM140 1566h131l269 293h-223z" />
    <glyph glyph-name="Eth" unicode="&#xc8;" horiz-adv-x="1251" 
d="M160 0h1015v164h-821v506h760v163h-760v465h815v164h-1009v-1462zM625 1566h131l-176 293h-223z" />
    <glyph glyph-name="brokenbar" unicode="&#xcb;" horiz-adv-x="1251" 
d="M160 0h1015v164h-821v506h760v163h-760v465h815v164h-1009v-1462zM732 1574h184v213h-184v-213zM347 1574h184v213h-184v-213z" />
    <glyph glyph-name="Zcaron" unicode="&#xca;" horiz-adv-x="1251" 
d="M160 0h1015v164h-821v506h760v163h-760v465h815v164h-1009v-1462zM325 1566h158l143 197v0l141 -197h172l-212 293h-191z" />
    <glyph glyph-name="degree" unicode="&#xc9;" horiz-adv-x="1251" 
d="M160 0h1015v164h-821v506h760v163h-760v465h815v164h-1009v-1462zM513 1566h131l269 293h-223z" />
    <glyph glyph-name="Iacute" unicode="&#xc3;" horiz-adv-x="1327" 
d="M-14 0h200l164 440h619l159 -440h215l-571 1462h-215zM659 1286h5l243 -682h-495zM925 1818q-8 -33 -31 -59q-24 -31 -63 -31q-64 2 -135 41q-35 16 -72 29q-39 12 -80 12q-94 -2 -141 -66q-51 -63 -74 -159h107q0 41 32 63q31 23 66 23q29 0 66 -11q34 -12 71 -28
q39 -17 76 -27q35 -14 59 -14q60 0 99 18q39 17 63 45q51 78 64 164h-107z" />
    <glyph glyph-name="udieresis" unicode="&#xc5;" horiz-adv-x="1327" 
d="M-14 0h200l164 440h619l159 -440h215l-571 1462h-215zM659 1286h5l243 -682h-495zM537 1718q0 59 41 100q39 39 98 39q60 0 101 -39q39 -41 39 -100q0 -60 -39 -99q-41 -41 -101 -41q-59 0 -98 41q-41 39 -41 99v0zM445 1718q2 -99 70 -162q63 -70 161 -70q99 0 166 70
q64 63 66 162q-2 98 -66 166q-67 63 -166 65q-98 -2 -161 -65q-68 -68 -70 -166v0z" />
    <glyph glyph-name="Egrave" unicode="&#xc0;" horiz-adv-x="1327" 
d="M-14 0h200l164 440h619l159 -440h215l-571 1462h-215zM659 1286h5l243 -682h-495zM669 1566h131l-176 293h-223z" />
    <glyph glyph-name="ucircumflex" unicode="&#xc4;" horiz-adv-x="1327" 
d="M-14 0h200l164 440h619l159 -440h215l-571 1462h-215zM659 1286h5l243 -682h-495zM776 1574h184v213h-184v-213zM391 1574h184v213h-184v-213z" />
    <glyph glyph-name="scaron" unicode="&#xc2;" horiz-adv-x="1327" 
d="M-14 0h200l164 440h619l159 -440h215l-571 1462h-215zM659 1286h5l243 -682h-495zM369 1566h158l143 197v0l141 -197h172l-212 293h-191z" />
    <glyph glyph-name="zcaron" unicode="&#xc1;" horiz-adv-x="1327" 
d="M-14 0h200l164 440h619l159 -440h215l-571 1462h-215zM659 1286h5l243 -682h-495zM556 1566h131l269 293h-223z" />
    </font>
</defs>
</svg>
